<svg width="1200" height="700" viewBox="0 0 1200 700" xmlns="http://www.w3.org/2000/svg" role="img" aria-labelledby="title desc">
  <title id="title">Blog article placeholder image</title>
  <desc id="desc">A stylized abstract image with gradient shapes representing legal insights.</desc>
  <defs>
    <linearGradient id="bg" x1="0%" y1="0%" x2="100%" y2="100%">
      <stop offset="0%" stop-color="#0b4db3" />
      <stop offset="100%" stop-color="#c6a039" />
    </linearGradient>
    <linearGradient id="accent" x1="0%" y1="0%" x2="100%" y2="0%">
      <stop offset="0%" stop-color="rgba(255,255,255,0.8)" />
      <stop offset="100%" stop-color="rgba(255,255,255,0.1)" />
    </linearGradient>
  </defs>
  <rect width="1200" height="700" fill="url(#bg)" rx="40" />
  <circle cx="250" cy="210" r="150" fill="rgba(255,255,255,0.12)" />
  <circle cx="950" cy="470" r="190" fill="rgba(255,255,255,0.08)" />
  <rect x="120" y="420" width="560" height="24" rx="12" fill="rgba(255,255,255,0.25)" />
  <rect x="120" y="470" width="420" height="18" rx="9" fill="rgba(255,255,255,0.18)" />
  <rect x="120" y="510" width="360" height="18" rx="9" fill="rgba(255,255,255,0.18)" />
  <path d="M760 180h260v120h-260z" fill="rgba(255,255,255,0.15)" rx="20" />
  <path d="M780 210h220v20h-220zm0 40h160v20h-160zm0 80h190v20h-190" fill="rgba(255,255,255,0.4)" />
  <rect x="120" y="90" width="360" height="90" rx="18" fill="url(#accent)" />
  <text x="140" y="150" font-family="Inter, Arial, sans-serif" font-size="34" fill="#fff" font-weight="700">Legal Insights</text>
  <text x="120" y="240" font-family="Inter, Arial, sans-serif" font-size="18" fill="rgba(255,255,255,0.85)">Expertise, compliance, and contract advisory for Nepalese business.</text>
</svg>
